<svg width="800" height="800" xmlns="http://www.w3.org/2000/svg">

 <g>
  <title>background</title>
  <rect fill="none" id="canvas_background" height="402" width="582" y="-1" x="-1"/>
 </g>
 <g>
  <title>Layer 1</title>
  <path id="svg_1" fill="#facf5a" d="m399.997,249.098c-81.565,0 -148.179,65.057 -150.779,146.008c-19.638,10.292 -33.071,30.865 -33.071,54.532c0,33.935 27.611,61.547 61.547,61.547c6.156,0 12.1,-0.92 17.712,-2.609c27.141,26.171 63.997,42.329 104.59,42.329c83.212,0 150.91,-67.692 150.91,-150.901c0.001,-83.213 -67.697,-150.906 -150.909,-150.906zm-145.975,200.541c0,-13.056 10.619,-23.675 23.672,-23.675c13.05,0 23.669,10.619 23.669,23.675c0,13.051 -10.619,23.67 -23.669,23.67c-13.052,0 -23.672,-10.621 -23.672,-23.67zm145.975,63.393c-27.761,0 -53.195,-10.081 -72.882,-26.756c7.612,-10.245 12.127,-22.925 12.127,-36.639c0,-30.594 -22.44,-56.032 -51.72,-60.75c5.602,-57.131 53.902,-101.919 112.475,-101.919c62.326,0 113.032,50.704 113.032,113.033c0,62.327 -50.706,113.031 -113.032,113.031z"/>
  <path id="svg_2" fill="#f95959" d="m621.189,273.893c8.26,-11.179 13.153,-24.986 13.153,-39.921c0,-37.118 -30.197,-67.315 -67.313,-67.315c-14.943,0 -28.759,4.9 -39.938,13.167c-37.968,-21.848 -81.111,-33.563 -126.097,-33.563c-67.774,0 -131.496,26.396 -179.419,74.322c-47.923,47.924 -74.319,111.642 -74.319,179.42c0,67.771 26.396,131.493 74.319,179.417c47.926,47.929 111.645,74.318 179.419,74.318c67.777,0 131.499,-26.391 179.423,-74.318c47.926,-47.924 74.321,-111.646 74.321,-179.417c0.003,-44.988 -11.709,-88.137 -33.549,-126.11zm-24.717,-39.921c0,16.235 -13.209,29.438 -29.439,29.438c-16.235,0 -29.444,-13.203 -29.444,-29.438c0,-16.235 13.209,-29.44 29.444,-29.44c16.23,-0.001 29.439,13.205 29.439,29.44zm-42.833,318.67c-40.771,40.769 -94.979,63.226 -152.642,63.226c-57.658,0 -111.866,-22.457 -152.636,-63.226c-40.773,-40.771 -63.227,-94.982 -63.227,-152.639c0,-57.661 22.454,-111.869 63.227,-152.642c40.77,-40.768 94.979,-63.224 152.636,-63.224c36.6,0 71.779,9.095 103.036,26.141c-2.783,7.375 -4.318,15.355 -4.318,23.694c0,37.119 30.197,67.316 67.316,67.316c8.333,0 16.313,-1.532 23.688,-4.315c17.046,31.257 26.145,66.434 26.145,103.031c-0.001,57.654 -22.452,111.865 -63.225,152.638z"/>
  <path id="svg_3" fill="#455d7a" d="m756.575,400.003c0,-95.247 -37.092,-184.79 -104.44,-252.138c-67.348,-67.346 -156.892,-104.437 -252.138,-104.437c-95.243,0 -184.787,37.091 -252.132,104.438c-67.349,67.349 -104.44,156.892 -104.44,252.138c0,95.243 37.091,184.786 104.44,252.135c67.349,67.35 156.892,104.436 252.132,104.436c86.331,0 167.976,-30.475 232.653,-86.331c9.669,5.152 20.687,8.085 32.385,8.085c38.094,0 69.089,-30.99 69.089,-69.086c0,-17.442 -6.512,-33.382 -17.213,-45.553c25.893,-49.994 39.664,-105.773 39.664,-163.687zm-581.93,225.351c-60.195,-60.192 -93.345,-140.225 -93.345,-225.351c0,-85.13 33.15,-165.163 93.345,-225.355c60.195,-60.193 140.226,-93.345 225.352,-93.345c85.132,0 165.162,33.152 225.357,93.345c60.191,60.192 93.343,140.225 93.343,225.355c0,50.521 -11.718,99.229 -33.795,143.076c-6.295,-1.894 -12.963,-2.925 -19.867,-2.925c-38.094,0 -69.088,30.995 -69.088,69.086c0,12.586 3.396,24.385 9.303,34.559c-57.374,48.471 -129.273,74.901 -205.253,74.901c-85.126,0 -165.157,-33.153 -225.352,-93.346zm490.39,15.099c-17.21,0 -31.211,-14 -31.211,-31.213c0,-17.207 14.001,-31.208 31.211,-31.208s31.214,14.001 31.214,31.208c0,17.213 -14.004,31.213 -31.214,31.213z"/>
 </g>
</svg>